<svg xmlns="http://www.w3.org/2000/svg" width="1920" height="1080" viewBox="0 0 1920 1080">

        <defs>
          <linearGradient id="bg" x1="0%" y1="0%" x2="100%" y2="100%">
            <stop offset="0%" stop-color="#f4f7fa"/>
            <stop offset="100%" stop-color="#eaf0f4"/>
          </linearGradient>
          <linearGradient id="header" x1="0%" y1="0%" x2="100%" y2="0%">
            <stop offset="0%" stop-color="#135f87"/>
            <stop offset="100%" stop-color="#12a2b2"/>
          </linearGradient>
          <marker id="arrowHead" markerWidth="12" markerHeight="12" refX="9" refY="6" orient="auto">
            <path d="M 0 0 L 12 6 L 0 12 z" fill="#2b7395"/>
          </marker>
          <marker id="branchHead" markerWidth="12" markerHeight="12" refX="9" refY="6" orient="auto">
            <path d="M 0 0 L 12 6 L 0 12 z" fill="#1494a4"/>
          </marker>
          <style>
            .title { font-family: 'Microsoft YaHei', sans-serif; font-size: 34px; font-weight: 700; fill: #ffffff; }
            .subtitle { font-family: 'Microsoft YaHei', sans-serif; font-size: 14px; fill: #d4eef1; }
            .section { font-family: 'Microsoft YaHei', sans-serif; font-size: 20px; font-weight: 700; fill: #164863; }
            .label { font-family: 'Microsoft YaHei', sans-serif; font-size: 16px; font-weight: 700; fill: #153e59; }
            .note { font-family: 'Microsoft YaHei', sans-serif; font-size: 12px; fill: #607887; }
            .panel { fill: #ffffff; stroke: #d6e0e8; stroke-width: 2; }
            .terminal { fill: #ffffff; stroke: #2a7395; stroke-width: 2; }
            .io { fill: #f7fbff; stroke: #2f88af; stroke-width: 2; }
            .step { fill: #ffffff; stroke: #5d9cb9; stroke-width: 2; }
            .branch { fill: #f4fbfc; stroke: #6cc1cb; stroke-width: 2; }
            .decision { fill: #ffffff; stroke: #19a3b1; stroke-width: 2; }
            .mainArrow { fill: none; stroke: #2b7395; stroke-width: 3; marker-end: url(#arrowHead); }
            .branchArrow { fill: none; stroke: #1494a4; stroke-width: 3; marker-end: url(#branchHead); }
          </style>
        </defs>
        
<rect width="1920" height="1080" fill="url(#bg)"/>
<rect class="panel" x="48" y="36" width="1824" height="1008" rx="30" ry="30"/>
<rect x="48" y="36" width="1824" height="92" rx="30" ry="30" fill="url(#header)"/>
<rect x="48" y="96" width="1824" height="32" fill="#12a2b2"/>
<text class="title" x="92" y="88">今日状态模块程序逻辑图</text>
<text class="subtitle" x="94" y="106">Today Status Module Flow</text>
<rect class="panel" x="86" y="178" width="1448" height="832" rx="24" ry="24"/>
<rect class="panel" x="1566" y="178" width="268" height="370" rx="24" ry="24"/>
<text class="section" x="116" y="204">流程区</text>
<text class="section" x="1598" y="204">图形语义</text>
<rect class="terminal" x="140" y="452" width="174" height="54" rx="22" ry="22"/>
<text class="label" x="227" y="482" text-anchor="middle">页面启动</text>
<rect class="io" x="364" y="452" width="202" height="54" rx="14" ry="14"/>
<text class="label" x="465" y="482" text-anchor="middle">读取本地睡眠记录</text>
<rect class="io" x="616" y="452" width="202" height="54" rx="14" ry="14"/>
<text class="label" x="717" y="482" text-anchor="middle">读取关键健康指标</text>
<rect class="io" x="868" y="452" width="228" height="54" rx="14" ry="14"/>
<text class="label" x="982" y="482" text-anchor="middle">读取恢复分与设备状态</text>
<rect class="step" x="1146" y="452" width="232" height="54" rx="14" ry="14"/>
<text class="label" x="1262" y="482" text-anchor="middle">聚合生成今日状态摘要</text>
<rect class="step" x="1630" y="452" width="246" height="54" rx="14" ry="14"/>
<text class="label" x="1753" y="482" text-anchor="middle">渲染恢复分主卡片与关键指标区</text>
<rect class="step" x="1630" y="614" width="246" height="54" rx="14" ry="14"/>
<text class="label" x="1753" y="644" text-anchor="middle">等待用户操作</text>
<rect class="terminal" x="1630" y="788" width="246" height="54" rx="22" ry="22"/>
<text class="label" x="1753" y="818" text-anchor="middle">当前页持续运行</text>
<rect class="branch" x="1172" y="290" width="180" height="40" rx="12" ry="12"/>
<text class="label" x="1262" y="320" text-anchor="middle">补充建议与解释入口</text>
<rect class="branch" x="1410" y="290" width="256" height="40" rx="12" ry="12"/>
<text class="label" x="1538" y="320" text-anchor="middle">发送当前页面上下文到讲解服务</text>
<rect class="branch" x="1418" y="942" width="240" height="40" rx="12" ry="12"/>
<text class="label" x="1538" y="972" text-anchor="middle">跳转并传递当前状态上下文</text>
<rect class="branch" x="1162" y="942" width="180" height="40" rx="12" ry="12"/>
<text class="label" x="1252" y="972" text-anchor="middle">刷新关键展示区域</text>
<rect class="branch" x="1162" y="1000" width="180" height="40" rx="12" ry="12"/>
<text class="label" x="1252" y="1030" text-anchor="middle">保持当前展示</text>
<polygon class="decision" points="1512,433 1600,479 1512,525 1424,479"/>
<text class="label" x="1512" y="471" text-anchor="middle"><tspan x="1512" dy="0">是否存在报告 / 问诊 / 推荐</tspan><tspan x="1512" dy="18">增强结果</tspan></text>
<polygon class="decision" points="1752,521 1836,560 1752,599 1668,560"/>
<text class="label" x="1752" y="552" text-anchor="middle"><tspan x="1752" dy="0">是否触发机器人讲解</tspan></text>
<polygon class="decision" points="1752,691 1854,730 1752,769 1650,730"/>
<text class="label" x="1752" y="722" text-anchor="middle"><tspan x="1752" dy="0">是否点击建议 / 干预 / 趋势入口</tspan></text>
<polygon class="decision" points="1458,776 1544,815 1458,854 1372,815"/>
<text class="label" x="1458" y="807" text-anchor="middle"><tspan x="1458" dy="0">本地事实层是否更新</tspan></text>
<line class="mainArrow" x1="314" y1="479" x2="364" y2="479"/>
<line class="mainArrow" x1="566" y1="479" x2="616" y2="479"/>
<line class="mainArrow" x1="818" y1="479" x2="868" y2="479"/>
<line class="mainArrow" x1="1096" y1="479" x2="1146" y2="479"/>
<line class="mainArrow" x1="1378" y1="479" x2="1424" y2="479"/>
<line class="mainArrow" x1="1600" y1="479" x2="1630" y2="479"/>
<line class="mainArrow" x1="1752" y1="521" x2="1752" y2="536"/>
<line class="mainArrow" x1="1752" y1="599" x2="1752" y2="614"/>
<line class="mainArrow" x1="1752" y1="668" x2="1752" y2="691"/>
<line class="mainArrow" x1="1752" y1="769" x2="1458" y2="769"/>
<line class="mainArrow" x1="1458" y1="854" x2="1458" y2="815"/>
<line class="mainArrow" x1="1498" y1="815" x2="1630" y2="815"/>
<line class="branchArrow" x1="1600" y1="479" x2="1172" y2="310"/>
<line class="branchArrow" x1="1262" y1="330" x2="1262" y2="452"/>
<line class="branchArrow" x1="1262" y1="452" x2="1630" y2="479"/>
<line class="branchArrow" x1="1668" y1="560" x2="1540" y2="330"/>
<line class="branchArrow" x1="1538" y1="330" x2="1538" y2="452"/>
<line class="branchArrow" x1="1538" y1="452" x2="1630" y2="479"/>
<line class="branchArrow" x1="1854" y1="730" x2="1418" y2="962"/>
<line class="branchArrow" x1="1538" y1="942" x2="1538" y2="842"/>
<line class="branchArrow" x1="1538" y1="842" x2="1630" y2="815"/>
<line class="branchArrow" x1="1372" y1="815" x2="1342" y2="962"/>
<line class="branchArrow" x1="1372" y1="815" x2="1342" y2="1020"/>
<text class="note" x="1168" y="286" text-anchor="start">是</text>
<text class="note" x="1534" y="286" text-anchor="start">是</text>
<text class="note" x="1412" y="938" text-anchor="start">是</text>
<text class="note" x="1158" y="938" text-anchor="start">是</text>
<text class="note" x="1662" y="434" text-anchor="start">否</text>
<text class="note" x="1654" y="582" text-anchor="start">否</text>
<text class="note" x="1654" y="748" text-anchor="start">否</text>
<text class="note" x="1338" y="996" text-anchor="start">否</text>
<rect class="terminal" x="1654" y="248" width="92" height="46" rx="14" ry="14"/>
<text class="note" x="1700" y="324" text-anchor="middle">开始 / 结束</text>
<rect class="io" x="1654" y="330" width="92" height="46" rx="10" ry="10"/>
<text class="note" x="1700" y="406" text-anchor="middle">读取 / 输出</text>
<rect class="step" x="1654" y="412" width="92" height="46" rx="10" ry="10"/>
<text class="note" x="1700" y="488" text-anchor="middle">流程处理</text>
<polygon class="decision" points="1700,488 1760,518 1700,548 1640,518"/>
<text class="note" x="1700" y="570" text-anchor="middle">条件判断</text>
</svg>